<?xml version="1.0" encoding="utf-8"?>
<!-- Generator: Adobe Illustrator 18.0.0, SVG Export Plug-In . SVG Version: 6.00 Build 0)  -->
<!DOCTYPE svg PUBLIC "-//W3C//DTD SVG 1.1//EN" "http://www.w3.org/Graphics/SVG/1.1/DTD/svg11.dtd">
<svg version="1.1" id="Layer_1" xmlns="http://www.w3.org/2000/svg" xmlns:xlink="http://www.w3.org/1999/xlink" x="0px" y="0px"
	 viewBox="0 0 387 75.2" enable-background="new 0 0 387 75.2" xml:space="preserve">
<g opacity="0.3">
	<g>
		<g id="Layer_5_85_">
			<path fill="#108A7B" d="M155.2,32.4c0.1-0.6,0.2-1.3,0.2-1.9c0-5.4-4.3-9.7-9.7-9.7c-4,0-7.4,2.4-8.9,5.8c-1.2-0.7-2.5-1.2-4-1.2
				c-3.9,0-7.1,3-7.3,6.8c-2.1,1-3.5,3.1-3.5,5.5c0,3.4,2.7,6.1,6.1,6.1c0,0,6.6,0,8.8,0c0.4,0,0.5-0.5,0.5-0.5v-3.9
				c0-0.3-0.3-0.6-0.6-0.6H135c-0.3,0-0.4-0.2-0.2-0.5l5.1-6.8c0.2-0.3,0.5-0.3,0.7,0l5.1,6.8c0.2,0.3,0.1,0.5-0.2,0.5h-1.7
				c-0.3,0-0.6,0.3-0.6,0.6v3.9c0,0,0,0.5,0.5,0.5c2.2,0,8.8,0,8.8,0c3.4,0,6.1-2.7,6.1-6.1C158.4,35.4,157.1,33.4,155.2,32.4z"/>
		</g>
	</g>
</g>
<g opacity="0.3">
	<g id="Laptop">
		<g>
			<path fill="#09897B" d="M241.2,26h-19.1c-1.2,0-2.2,1-2.2,2.2v9.6c0,1.2,1,2.2,2.2,2.2h19.1c1.2,0,2.2-1,2.2-2.2v-9.6
				C243.4,27,242.4,26,241.2,26z M241.9,37.8c0,0.4-0.3,0.7-0.7,0.7h-19.1c-0.4,0-0.7-0.3-0.7-0.7v-9.6c0-0.4,0.3-0.7,0.7-0.7h19.1
				c0.4,0,0.7,0.3,0.7,0.7V37.8z M242.3,41.5h-7.7c0,0.4-0.3,0.7-0.7,0.7h-4.4c-0.4,0-0.7-0.3-0.7-0.7H221c-0.6,0-1.1,0.5-1.1,1.1
				s0.5,1.1,1.1,1.1h21.3c0.6,0,1.1-0.5,1.1-1.1S242.9,41.5,242.3,41.5z"/>
		</g>
	</g>
</g>
<g opacity="0.3">
	<g>
		<path fill="#09897B" d="M230.8,62.8v3.9h10.5v-3.9v-2.6h-10.5V62.8z M232.1,61.5h7.8v1.3h-7.8V61.5z M232.1,64.1h7.8v1.3h-7.8
			V64.1z"/>
		<polygon fill="#09897B" points="241.3,51 241.3,47.1 230.8,47.1 230.8,51 230.8,53.7 241.3,53.7 		"/>
		<path fill="#09897B" d="M243.9,51h-1.3v2.6V55h-13.1v-1.3V51h-1.3c-1.3,0-2.6,1.3-2.6,2.6v6.5c0,1.3,1.3,2.6,2.6,2.6h1.3v-2.6
			v-1.3h13.1v1.3v2.6h1.3c1.3,0,2.6-1.3,2.6-2.6v-6.5C246.5,52.4,245.2,51,243.9,51z"/>
	</g>
</g>
<g opacity="0.3">
	<g>
		<g>
			<path fill="#108A7B" d="M167.6,7.6h-0.3c-0.4,0-0.7,0.3-0.7,0.6V11h1.7V8.2C168.3,7.9,168,7.6,167.6,7.6z"/>
			<path fill="#108A7B" d="M172.3,7.6h-0.3c-0.4,0-0.7,0.3-0.7,0.6V11h1.7V8.2C173,7.9,172.6,7.6,172.3,7.6z"/>
			<path fill="#108A7B" d="M169.8,2.8c-6.7,0-12.2,5.5-12.2,12.2c0,3.2,1.3,6.3,3.5,8.6c1.4,1.4,3,2.4,4.8,3c0.1,0,0.2,0.1,0.4,0.1
				c0.5,0,1-0.3,1.1-0.8c0.2-0.6-0.1-1.3-0.8-1.5c-1.5-0.5-2.8-1.3-3.9-2.4c-1.8-1.9-2.9-4.3-2.9-6.9c0-5.4,4.4-9.8,9.8-9.8
				s9.8,4.4,9.8,9.8c0,2.6-1,5.1-2.9,6.9c-0.7,0.6-2.5,1.9-3.5,1.9c-0.5,0-1-0.2-1.3-0.5c-0.8-0.9-1-2.8-1-4.1
				c2-0.1,3.7-1.8,3.7-3.8v-3.6H165v3.6c0,2,1.6,3.7,3.5,3.8c0,1.6,0.2,4.1,1.6,5.7c0.8,0.9,1.8,1.3,3,1.3c2.3,0,4.9-2.3,5.1-2.6
				l0,0c2.3-2.3,3.6-5.4,3.6-8.6C181.9,8.3,176.5,2.8,169.8,2.8z"/>
		</g>
	</g>
</g>
<path opacity="0.3" fill="#108A7B" d="M272,11.6c-5.6,0-10-1.6-13.6-5.2c-3.7,3.6-8,5.2-13.6,5.2c0,9.3-1.9,22.5,13.6,27.9
	C273.9,34.1,272,20.8,272,11.6z M257.2,27.9l-4.5-4.5l2-2l2.5,2.5L262,19l2,2L257.2,27.9z"/>
<g opacity="0.5">
	<path fill="#108A7B" d="M169.4,45.7c-0.2-0.3-0.3-0.4-0.3-0.5c0,0-0.1-0.1-0.1-0.1c-0.2-0.2-0.3-0.5-0.3-0.8c0-0.1,0-0.2,0.1-0.2
		h-5V33.6h7v7.8c0,0,0,0,0,0c0.1,0.2,0.3,0.6,0.4,0.8c0.1,0,0.1-0.1,0.2-0.1c0.1,0,0.1,0,0.2-0.1v-9.2c0-0.6-0.5-1.1-1.1-1.1H164
		c-0.6,0-1.1,0.5-1.1,1.1v13c0,0.6,0.5,1.1,1.1,1.1h6.4c0.2,0,0.5-0.1,0.6-0.2c-0.3-0.1-0.6-0.3-0.9-0.5
		C169.6,46,169.4,45.8,169.4,45.7z M169.7,32.4c0.2,0,0.3,0.1,0.3,0.3c0,0.2-0.1,0.3-0.3,0.3c-0.2,0-0.3-0.1-0.3-0.3
		C169.4,32.5,169.5,32.4,169.7,32.4z M165.7,32.5h3v0.3h-3V32.5z M168.6,45.7h-2.7v-0.8h2.7L168.6,45.7L168.6,45.7z M164.8,34.8h1.9
		v2.1h-1.9V34.8z M166.8,37.1c0.1,0,0.1-0.1,0.1-0.1v-2.3c0-0.1-0.1-0.1-0.1-0.1h-2.2c-0.1,0-0.1,0.1-0.1,0.1V37
		c0,0.1,0.1,0.1,0.1,0.1L166.8,37.1L166.8,37.1z M164.6,34.7h2.2V37h-2.2V34.7z M170.1,38.2c0,0.2-0.1,0.3-0.3,0.3h-5.1
		c-0.2,0-0.3-0.1-0.3-0.3c0-0.2,0.1-0.3,0.3-0.3h5.1C170,37.9,170.1,38.1,170.1,38.2z M169.2,40h-4.5c-0.2,0-0.3-0.1-0.3-0.3
		c0-0.2,0.1-0.3,0.3-0.3h5.1c0.2,0,0.3,0.1,0.3,0.3S170,40,169.8,40h-0.1C169.5,39.9,169.4,39.9,169.2,40
		C169.2,40,169.2,40,169.2,40z M168.2,40.8c0,0.1,0,0.2,0.1,0.3c0.1,0.1,0.1,0.3,0.2,0.4h-3.8c-0.2,0-0.3-0.1-0.3-0.3
		c0-0.2,0.1-0.3,0.3-0.3L168.2,40.8L168.2,40.8z M172.6,46.9c0,0,0.1-0.2-0.4-0.4c0,0-0.8,0-1.7-0.5c0,0-0.6-0.2-0.7-0.4
		c-0.4-0.6-0.5-0.5-0.5-0.6c-0.4-0.2-0.5-1.1,0.3-0.7c0,0,0.5,0.4,0.5,0.4c0,0,0.4,0.4,0.7,0.4c0.3-0.2-0.6-1.5-0.6-1.6
		c0,0-0.5-0.8-1.3-2.4c-0.4-1,0.3-0.8,0.5-0.5c0.1,0,1.3,2.1,1.4,2.1c0,0,0.4-0.7,1-0.2c0,0,0.4-0.6,1-0.1c0,0,0.8-0.3,1.1,0.4
		c0,0,0.9,1.3,0.8,2.5l0.1,0.5L172.6,46.9z"/>
</g>
<g opacity="0.5">
	<path fill="#108A7B" d="M155.6,48.1h-7.6c-0.3,0-0.5,0.2-0.5,0.5v22.2c0,0.3,0.2,0.5,0.5,0.5h7.6c0.3,0,0.5-0.2,0.5-0.5V48.6
		C156.1,48.3,155.9,48.1,155.6,48.1z M151.9,67c-0.9,0-1.7-0.8-1.7-1.7c0-0.9,0.8-1.7,1.7-1.7c0.9,0,1.7,0.8,1.7,1.7
		C153.5,66.3,152.8,67,151.9,67z M155,58.4c0,0.3-0.2,0.5-0.5,0.5h-5.2c-0.3,0-0.5-0.2-0.5-0.5v-0.5c0-0.3,0.2-0.5,0.5-0.5h5.2
		c0.3,0,0.5,0.2,0.5,0.5V58.4z M155,56c0,0.3-0.2,0.5-0.5,0.5h-5.2c-0.3,0-0.5-0.2-0.5-0.5v-0.5c0-0.3,0.2-0.5,0.5-0.5h5.2
		c0.3,0,0.5,0.2,0.5,0.5V56z M155,53.6c0,0.3-0.2,0.5-0.5,0.5h-5.2c-0.3,0-0.5-0.2-0.5-0.5v-0.5c0-0.3,0.2-0.5,0.5-0.5h5.2
		c0.3,0,0.5,0.2,0.5,0.5V53.6z M155,51.2c0,0.3-0.2,0.5-0.5,0.5h-5.2c-0.3,0-0.5-0.2-0.5-0.5v-0.5c0-0.3,0.2-0.5,0.5-0.5h5.2
		c0.3,0,0.5,0.2,0.5,0.5V51.2z"/>
	<path fill="#108A7B" d="M166.7,50.7c0-0.2-0.2-0.4-0.4-0.4c-2.2-0.2-4.5-0.4-6.7-0.6c0,0-0.1,0-0.2,0l-2.6,0.7v20.6l2.7,0.4
		c0,0,0.1,0,0.1,0c2.2-0.2,4.5-0.4,6.7-0.6c0.2,0,0.4-0.2,0.4-0.4C166.7,64.9,166.7,55.9,166.7,50.7z M160.2,52.1
		c0-0.2,0.2-0.4,0.4-0.4c1.5,0.1,3.1,0.2,4.6,0.3c0.2,0,0.4,0.2,0.4,0.4v0.4c0,0.2-0.2,0.4-0.4,0.4c-1.5-0.1-3.1-0.2-4.6-0.3
		c-0.2,0-0.4-0.2-0.4-0.5V52.1z M165.7,59.1c0,0.2-0.2,0.4-0.4,0.4c-1.5,0-3.1,0-4.6,0.1c-0.2,0-0.4-0.2-0.4-0.4v-0.4
		c0-0.2,0.2-0.4,0.4-0.4c1.5,0,3.1,0,4.6,0c0.2,0,0.4,0.2,0.4,0.4V59.1z M165.3,57.4c-1.5,0-3.1,0-4.6-0.1c-0.2,0-0.4-0.2-0.4-0.4
		v-0.4c0-0.2,0.2-0.4,0.4-0.4c1.5,0,3.1,0.1,4.6,0.1c0.2,0,0.4,0.2,0.4,0.4c0,0.2,0,0.2,0,0.4C165.7,57.2,165.5,57.4,165.3,57.4z
		 M165.7,54.9c0,0.2-0.2,0.4-0.4,0.4c-1.5-0.1-3.1-0.1-4.6-0.2c-0.2,0-0.4-0.2-0.4-0.5v-0.4c0-0.2,0.2-0.4,0.4-0.4
		c1.5,0.1,3.1,0.1,4.6,0.2c0.2,0,0.4,0.2,0.4,0.4V54.9z"/>
	<path fill="#108A7B" d="M144.2,49.6c-2.2,0.2-4.5,0.4-6.7,0.6c-0.2,0-0.4,0.2-0.4,0.4c0,5.2,0,14.3,0,19.5c0,0.2,0.2,0.4,0.4,0.4
		c2.2,0.2,4.5,0.4,6.7,0.6c0,0,0,0,0.1,0l2.7-0.4V50.3l-2.6-0.7C144.2,49.6,144.2,49.6,144.2,49.6z M143.5,59.1
		c0,0.2-0.2,0.4-0.4,0.4c-1.5,0-3.1,0-4.6-0.1c-0.2,0-0.4-0.2-0.4-0.4v-0.4c0-0.2,0.2-0.4,0.4-0.4c1.5,0,3.1,0,4.6,0
		c0.2,0,0.4,0.2,0.4,0.4V59.1z M143.5,56.9c0,0.2-0.2,0.4-0.4,0.4c-1.5,0-3.1,0-4.6,0.1c-0.2,0-0.4-0.2-0.4-0.4c0-0.2,0-0.2,0-0.4
		c0-0.2,0.2-0.4,0.4-0.4c1.5,0,3.1-0.1,4.6-0.1c0.2,0,0.4,0.2,0.4,0.4V56.9z M143.5,54.7c0,0.2-0.2,0.4-0.4,0.5
		c-1.5,0.1-3.1,0.1-4.6,0.2c-0.2,0-0.4-0.2-0.4-0.4v-0.4c0-0.2,0.2-0.4,0.4-0.4c1.5-0.1,3.1-0.1,4.6-0.2c0.2,0,0.4,0.2,0.4,0.4V54.7
		z M143.5,52.5c0,0.2-0.2,0.5-0.4,0.5c-1.5,0.1-3.1,0.2-4.6,0.3c-0.2,0-0.4-0.2-0.4-0.4v-0.4c0-0.2,0.2-0.4,0.4-0.4
		c1.5-0.1,3.1-0.2,4.6-0.3c0.2,0,0.4,0.2,0.4,0.4V52.5z"/>
</g>
<g opacity="0.5">
	<g>
		<circle fill="#09897B" cx="218.7" cy="19.3" r="2"/>
		<path fill="#09897B" d="M225.6,19.3c0,0,0-0.1,0-0.1l0-0.1c0,0,0,0,0-0.1c-0.2-3.6-3.1-6.4-6.7-6.4l-0.4,0l-0.6,0
			c-0.7,0-1.3,0.6-1.3,1.3c0,0.7,0.6,1.3,1.3,1.3l1,0c2.3,0,4.1,1.9,4.1,4.1l0,0.7c0,0.7,0.6,1.3,1.3,1.3c0.3,0,0.7-0.1,0.9-0.4
			c0.2-0.2,0.4-0.6,0.4-0.9L225.6,19.3z"/>
		<path fill="#09897B" d="M229.9,19.9l0-0.6c0,0,0,0,0,0l0-0.5c0-0.1,0-0.2,0-0.2c-0.4-5.7-5.1-10.3-10.9-10.4c0,0-0.1,0-0.1,0
			l-1.1,0c-0.6,0-1.2,0.5-1.2,1.2c0,0.6,0.5,1.2,1.2,1.2l1.1,0c0,0,0,0,0,0c4.7,0.1,8.5,3.9,8.6,8.6l0,0.9c0,0.6,0.5,1.2,1.2,1.2
			C229.3,21.1,229.9,20.6,229.9,19.9z"/>
	</g>
</g>
<path opacity="0.5" fill="#09897B" d="M282.2,41.8h-13.7c-0.4,0-0.8,0.3-0.8,0.8V46h-3.9v-3.5c0-0.4-0.3-0.8-0.8-0.8h-13.7
	c-0.4,0-0.8,0.3-0.8,0.8v8.5c0,0.4,0.3,0.8,0.8,0.8h4.7v0.4h-0.6c-0.4,0-0.8,0.3-0.8,0.8c0,0.4,0.3,0.8,0.8,0.8h2.6v4.1
	c0,0.5,0.4,0.9,0.9,0.9h6.1v0.7h-0.9c-0.5,0-0.9,0.4-0.9,0.9c0,0.5,0.4,0.9,0.9,0.9h3v1.6h-1.6c-0.3,0-0.6,0.3-0.6,0.6v0.2h-10.2
	c-0.3,0-0.6,0.3-0.6,0.6c0,0.3,0.3,0.6,0.6,0.6h10.2V65c0,0.3,0.3,0.6,0.6,0.6h4.4c0.3,0,0.6-0.3,0.6-0.6v-0.2h10.2
	c0.3,0,0.6-0.3,0.6-0.6c0-0.3-0.3-0.6-0.6-0.6h-10.2v-0.2c0-0.3-0.3-0.6-0.6-0.6h-1.6v-1.6h3c0.5,0,0.9-0.4,0.9-0.9
	c0-0.5-0.4-0.9-0.9-0.9h-0.9v-0.7h6.1c0.5,0,0.9-0.4,0.9-0.9v-4.1h2.6c0.4,0,0.8-0.3,0.8-0.8c0-0.4-0.3-0.8-0.8-0.8h-0.6v-0.4h4.7
	c0.4,0,0.8-0.3,0.8-0.8v-8.5C282.9,42.1,282.6,41.8,282.2,41.8z M256,46.9v2.8h-6v-6.4h12.2V46h-5.3C256.4,46,256,46.4,256,46.9z
	 M265.7,58.2c-0.3,0-0.6-0.3-0.6-0.6c0-0.3,0.3-0.6,0.6-0.6c0.3,0,0.6,0.3,0.6,0.6C266.3,58,266,58.2,265.7,58.2z M273.6,56.2h-15.8
	v-8.4h15.8V56.2z M281.4,49.7h-6v-2.8c0-0.5-0.4-0.9-0.9-0.9h-5.3v-2.7h12.2L281.4,49.7L281.4,49.7z"/>
<g opacity="0.5">
	<g id="Game_Pad">
		<g>
			<path fill="#09897B" d="M153.9,9.9c-1.6-3.6-3-4.2-3.7-4.5c-1.2-0.4-2.5,0.3-2.9,0.6c-0.4,0.4-0.7,0.9-1.1,1.2
				c-0.5,0.4-1.3,0.6-1.9,0.4c-0.5-0.1-1-0.5-1.7-0.6c-0.8-0.1-2.1-0.3-3.1,0.9c-0.2,0.3-1.9,2.4-1.4,7.7c0.3,3.3,2.3,4,2.2,3.9
				c0.5,0.2,1.7,0.6,2.9-0.6c0.8-0.8,1.3-2.1,1.3-2.1s0.2-0.7,0.6-1.1c0.3-0.3,0.8-0.2,0.8-0.2l1.7-0.4c0,0,0.5-0.2,0.9-0.1
				c0.4,0.1,0.7,0.4,0.7,0.4s1.4,1.2,2.6,1.7c0.5,0.2,2.4,0.2,3.1-1.2C155.3,15.2,155.3,12.8,153.9,9.9z M145,11.4
				c0.1,0.3-0.1,0.6-0.4,0.6l-1.3,0.3l0.3,1.3c0.1,0.3-0.1,0.6-0.4,0.6l-0.4,0.1c-0.3,0.1-0.6-0.1-0.6-0.4l-0.3-1.3l-1.3,0.3
				c-0.3,0.1-0.6-0.1-0.6-0.4l-0.1-0.4c-0.1-0.3,0.1-0.6,0.4-0.6l1.3-0.3l-0.3-1.3c-0.1-0.3,0.1-0.6,0.4-0.6l0.4-0.1
				c0.3-0.1,0.6,0.1,0.6,0.4l0.3,1.3l1.3-0.3c0.3-0.1,0.6,0.1,0.6,0.4L145,11.4L145,11.4z M148.9,12.5c-0.5,0.1-1-0.2-1.2-0.8
				c-0.1-0.5,0.2-1.1,0.7-1.2s1,0.2,1.2,0.8C149.7,11.8,149.4,12.4,148.9,12.5z M150.2,10c-0.5,0.1-1-0.2-1.1-0.8
				c-0.1-0.5,0.2-1,0.7-1.2c0.5-0.1,1,0.2,1.1,0.8C151,9.3,150.7,9.9,150.2,10z"/>
		</g>
	</g>
</g>
<g opacity="0.5">
	<path fill="#09897B" d="M130.2,51.7l-2.9-2.1c-0.1-0.1-0.2-0.1-0.4,0c-0.1,0.1-0.2,0.2-0.2,0.3v4.2c0,0.1,0.1,0.3,0.2,0.3
		c0,0,0.1,0,0.2,0c0.1,0,0.1,0,0.2-0.1l2.9-2.1c0.1-0.1,0.1-0.2,0.1-0.3C130.4,51.9,130.3,51.8,130.2,51.7z"/>
	<path fill="#09897B" d="M127.9,45c-3.9,0-7,3.1-7,7c0,3.9,3.1,7,7,7c3.9,0,7-3.1,7-7C134.9,48.2,131.8,45,127.9,45z M127.9,57.8
		c-3.2,0-5.8-2.6-5.8-5.8c0-3.2,2.6-5.8,5.8-5.8c3.2,0,5.8,2.6,5.8,5.8C133.7,55.2,131.1,57.8,127.9,57.8z"/>
</g>
<g>
	<g>
		<path fill-rule="evenodd" clip-rule="evenodd" fill="#FDDECC" d="M192.3,46.7c-12.5,5.5-16.2,8.4-17.7,9.7
			c-2.3,2-3.5,9.5-4.9,15.9H198h28.2c-1.3-6.4-2.6-13.9-4.9-15.9c-1.5-1.3-5.1-4.1-17.5-9.6L192.3,46.7z"/>
		<path fill-rule="evenodd" clip-rule="evenodd" fill="#023233" d="M192.3,46.7c-12.5,5.5-16.2,8.4-17.7,9.7
			c-2.3,2-3.5,9.5-4.9,15.9H198h28.2c-1.3-6.4-2.6-13.9-4.9-15.9c-1.5-1.3-5.1-4.1-17.5-9.6L192.3,46.7z"/>
		<path fill-rule="evenodd" clip-rule="evenodd" fill="#F6C89E" d="M191.9,35.8v9.3v4.6c3.3,3.9,8.8,4.1,12.1,0v-4.6v-9.3
			C204,28.4,191.9,28.4,191.9,35.8z"/>
		
			<ellipse transform="matrix(-0.3127 -0.9498 0.9498 -0.3127 215.8233 217.0895)" fill-rule="evenodd" clip-rule="evenodd" fill="#F6C89E" cx="186.5" cy="30.5" rx="3.5" ry="2"/>
		
			<ellipse transform="matrix(0.3129 -0.9498 0.9498 0.3129 114.9712 219.8556)" fill-rule="evenodd" clip-rule="evenodd" fill="#F6C89E" cx="209.4" cy="30.5" rx="3.5" ry="2"/>
		<path fill-rule="evenodd" clip-rule="evenodd" fill="#FFFFFF" d="M191.9,45.1l-0.5,2.1l1.5,10.7l5.1-5.2L191.9,45.1z"/>
		<path opacity="0.2" fill="#010101" d="M191.9,42.5v0.4c0,0,3.1,3.7,6,3.8c2.9,0.1,6.1-3.6,6.1-3.6v-0.7"/>
		<g>
			<path fill-rule="evenodd" clip-rule="evenodd" fill="#F6C89E" d="M198,11c-18.6,0-11.5,25.5-10.3,27.5c1.3,2.2,7.3,6.9,10.3,6.9
				c3,0,8.9-4.7,10.3-6.9C209.5,36.5,216.6,11,198,11z"/>
			<path fill="#023233" d="M211.2,28.5c1-4.7,0.3-15.8-3.3-15.4c-3.4-3.5-15.4-4.1-18.7-0.4c-7.5,1.4-4,15.9-4,15.9
				c0.2,1.4,0.6,2.7,0.9,3.8c0.5,0,1-0.1,1.5-0.1c-0.5-1-1-2-1.2-2.8c-0.1-0.4-0.3-2-0.3-2.3c0.1-2.6,2-10.1,5.2-10.7
				c1.3-0.2,4.4,2.6,6.5,2.6c2.2-0.1,4.9-2.9,6.3-2.7c3.4,0.5,6.2,7.4,6.2,10.7c0,0.4-0.5,3-1.4,4.8c0.5,0,1.1-0.1,1.6-0.1
				C210.8,30.8,211,29.7,211.2,28.5L211.2,28.5z"/>
		</g>
		<path fill-rule="evenodd" clip-rule="evenodd" fill="#FFFFFF" d="M204,45.1l0.4,2l-1.4,10.9l-5-5.3L204,45.1z"/>
		<polyline opacity="5.000000e-002" fill="#010101" points="191.9,45.1 198,52.6 204,45.1 204,44.9 198,52.4 191.9,44.9 191.9,45.1 
					"/>
		<polygon opacity="0.1" fill-rule="evenodd" clip-rule="evenodd" fill="#010101" points="196.8,57.7 199.1,57.7 199.1,57.8 
			196.8,57.8 		"/>
		<g>
			<path fill-rule="evenodd" clip-rule="evenodd" fill="#023233" d="M198.4,35.4c-0.3,0-0.5,0.4-0.5,0.4s-0.2-0.4-0.5-0.4
				c-1.1,0-5.4,0.4-6.7,2.1c0,0,6.2-0.1,6.5-0.2c0.3-0.1,0.6-0.8,0.6-0.8s0.3,0.7,0.6,0.8c0.3,0.1,6.5,0.2,6.5,0.2
				C203.9,35.9,199.5,35.4,198.4,35.4z"/>
		</g>
	</g>
	<path fill="#FFFFFF" d="M211.5,73.9h-26.9c-0.6,0-1.1-0.5-1.1-1.1l-1.3-17.6c0-0.6,0.5-1.1,1.1-1.1h29.4c0.6,0,1.1,0.5,1.1,1.1
		l-1.2,17.6C212.6,73.4,212.1,73.9,211.5,73.9z"/>
	<polygon fill="#023233" points="211.6,72.3 184.8,72.3 183.7,55.5 212.6,55.5 	"/>
</g>
</svg>
